<svg width="17" height="17" viewBox="0 0 17 17" fill="none" xmlns="http://www.w3.org/2000/svg">
<path d="M11.8335 6.58839C11.7086 6.46423 11.5396 6.39453 11.3635 6.39453C11.1873 6.39453 11.0184 6.46423 10.8935 6.58839L8.50013 8.94839L6.14013 6.58839C6.01522 6.46423 5.84625 6.39453 5.67013 6.39453C5.494 6.39453 5.32504 6.46423 5.20013 6.58839C5.13764 6.65037 5.08805 6.7241 5.0542 6.80534C5.02036 6.88658 5.00293 6.97372 5.00293 7.06173C5.00293 7.14973 5.02036 7.23687 5.0542 7.31811C5.08805 7.39935 5.13764 7.47308 5.20013 7.53506L8.02679 10.3617C8.08877 10.4242 8.1625 10.4738 8.24374 10.5077C8.32498 10.5415 8.41212 10.5589 8.50013 10.5589C8.58814 10.5589 8.67527 10.5415 8.75651 10.5077C8.83775 10.4738 8.91149 10.4242 8.97346 10.3617L11.8335 7.53506C11.8959 7.47308 11.9455 7.39935 11.9794 7.31811C12.0132 7.23687 12.0307 7.14973 12.0307 7.06173C12.0307 6.97372 12.0132 6.88658 11.9794 6.80534C11.9455 6.7241 11.8959 6.65037 11.8335 6.58839Z" fill="#477DB3"/>
</svg>
