<svg width="17" height="17" viewBox="0 0 17 17" fill="none" xmlns="http://www.w3.org/2000/svg">
<path d="M10.8602 8.00293L7.08682 4.23626C7.02484 4.17378 6.95111 4.12418 6.86987 4.09033C6.78863 4.05649 6.70149 4.03906 6.61348 4.03906C6.52548 4.03906 6.43834 4.05649 6.3571 4.09033C6.27586 4.12418 6.20213 4.17378 6.14015 4.23626C6.01598 4.36117 5.94629 4.53014 5.94629 4.70626C5.94629 4.88239 6.01598 5.05135 6.14015 5.17626L9.44015 8.50959L6.14015 11.8096C6.01598 11.9345 5.94629 12.1035 5.94629 12.2796C5.94629 12.4557 6.01598 12.6247 6.14015 12.7496C6.20189 12.8126 6.27552 12.8627 6.35677 12.897C6.43802 12.9314 6.52528 12.9492 6.61348 12.9496C6.70169 12.9492 6.78894 12.9314 6.87019 12.897C6.95144 12.8627 7.02507 12.8126 7.08682 12.7496L10.8602 8.98293C10.9278 8.9205 10.9818 8.84473 11.0188 8.7604C11.0557 8.67607 11.0748 8.585 11.0748 8.49293C11.0748 8.40086 11.0557 8.30979 11.0188 8.22546C10.9818 8.14112 10.9278 8.06536 10.8602 8.00293Z" fill="#477DB3"/>
</svg>
