<svg width="8" height="6" viewBox="0 0 8 6" fill="none" xmlns="http://www.w3.org/2000/svg">
<path d="M6.83346 1.08839C6.70855 0.964226 6.53959 0.894531 6.36346 0.894531C6.18734 0.894531 6.01837 0.964226 5.89346 1.08839L3.50013 3.44839L1.14013 1.08839C1.01522 0.964226 0.846252 0.894531 0.670128 0.894531C0.494005 0.894531 0.325037 0.964226 0.200129 1.08839C0.137643 1.15037 0.0880466 1.2241 0.0542008 1.30534C0.020355 1.38658 0.00292969 1.47372 0.00292969 1.56173C0.00292969 1.64973 0.020355 1.73687 0.0542008 1.81811C0.0880466 1.89935 0.137643 1.97308 0.200129 2.03506L3.02679 4.86173C3.08877 4.92421 3.1625 4.97381 3.24374 5.00765C3.32498 5.0415 3.41212 5.05892 3.50013 5.05892C3.58814 5.05892 3.67527 5.0415 3.75651 5.00765C3.83775 4.97381 3.91149 4.92421 3.97346 4.86173L6.83346 2.03506C6.89595 1.97308 6.94554 1.89935 6.97939 1.81811C7.01323 1.73687 7.03066 1.64973 7.03066 1.56173C7.03066 1.47372 7.01323 1.38658 6.97939 1.30534C6.94554 1.2241 6.89595 1.15037 6.83346 1.08839Z" fill="#5F5F68"/>
</svg>
