<svg width="13" height="13" viewBox="0 0 13 13" fill="none" xmlns="http://www.w3.org/2000/svg">
<path d="M9.45899 3.78656C9.40826 3.66439 9.31117 3.5673 9.18899 3.51656C9.12888 3.49094 9.06433 3.47735 8.99899 3.47656H3.99899C3.86638 3.47656 3.73921 3.52924 3.64544 3.62301C3.55167 3.71678 3.49899 3.84395 3.49899 3.97656C3.49899 4.10917 3.55167 4.23635 3.64544 4.33012C3.73921 4.42388 3.86638 4.47656 3.99899 4.47656H7.79399L3.64399 8.62156C3.59713 8.66804 3.55993 8.72334 3.53455 8.78427C3.50916 8.8452 3.49609 8.91056 3.49609 8.97656C3.49609 9.04257 3.50916 9.10792 3.53455 9.16885C3.55993 9.22978 3.59713 9.28508 3.64399 9.33156C3.69047 9.37843 3.74577 9.41562 3.8067 9.44101C3.86763 9.46639 3.93299 9.47946 3.99899 9.47946C4.065 9.47946 4.13035 9.46639 4.19128 9.44101C4.25221 9.41562 4.30751 9.37843 4.35399 9.33156L8.49899 5.18156V8.97656C8.49899 9.10917 8.55167 9.23635 8.64544 9.33012C8.73921 9.42388 8.86638 9.47656 8.99899 9.47656C9.1316 9.47656 9.25878 9.42388 9.35255 9.33012C9.44631 9.23635 9.49899 9.10917 9.49899 8.97656V3.97656C9.4982 3.91122 9.48461 3.84667 9.45899 3.78656Z" fill="#737A91"/>
</svg>
