<svg width="16" height="16" viewBox="0 0 16 16" fill="none" xmlns="http://www.w3.org/2000/svg">
<path d="M11.9456 4.41333C11.878 4.25043 11.7485 4.12098 11.5856 4.05333C11.5055 4.01917 11.4194 4.00105 11.3323 4H4.66565C4.48884 4 4.31927 4.07024 4.19425 4.19526C4.06922 4.32029 3.99898 4.48986 3.99898 4.66667C3.99898 4.84348 4.06922 5.01305 4.19425 5.13807C4.31927 5.2631 4.48884 5.33333 4.66565 5.33333H9.72565L4.19232 10.86C4.12983 10.922 4.08023 10.9957 4.04639 11.0769C4.01254 11.1582 3.99512 11.2453 3.99512 11.3333C3.99512 11.4213 4.01254 11.5085 4.04639 11.5897C4.08023 11.671 4.12983 11.7447 4.19232 11.8067C4.25429 11.8692 4.32803 11.9187 4.40926 11.9526C4.4905 11.9864 4.57764 12.0039 4.66565 12.0039C4.75366 12.0039 4.84079 11.9864 4.92203 11.9526C5.00327 11.9187 5.07701 11.8692 5.13898 11.8067L10.6656 6.27333V11.3333C10.6656 11.5101 10.7359 11.6797 10.8609 11.8047C10.9859 11.9298 11.1555 12 11.3323 12C11.5091 12 11.6787 11.9298 11.8037 11.8047C11.9287 11.6797 11.999 11.5101 11.999 11.3333V4.66667C11.9979 4.57955 11.9798 4.49348 11.9456 4.41333Z" fill="#475467"/>
</svg>
