<svg width="12" height="12" viewBox="0 0 12 12" fill="none" xmlns="http://www.w3.org/2000/svg">
<path d="M9.91312 3.2038C9.85889 3.14912 9.79437 3.10573 9.72329 3.07611C9.6522 3.0465 9.57596 3.03125 9.49895 3.03125C9.42195 3.03125 9.3457 3.0465 9.27462 3.07611C9.20353 3.10573 9.13902 3.14912 9.08479 3.2038L4.73895 7.55547L2.91312 5.7238C2.85682 5.66941 2.79035 5.62664 2.71752 5.59794C2.64469 5.56924 2.56691 5.55516 2.48864 5.55652C2.41037 5.55787 2.33313 5.57463 2.26133 5.60583C2.18954 5.63704 2.12459 5.68208 2.0702 5.73838C2.01581 5.79469 1.97305 5.86115 1.94435 5.93398C1.91564 6.00682 1.90157 6.08459 1.90292 6.16286C1.90428 6.24113 1.92103 6.31837 1.95224 6.39017C1.98344 6.46196 2.02848 6.52691 2.08479 6.5813L4.32479 8.8213C4.37902 8.87597 4.44353 8.91937 4.51462 8.94899C4.5857 8.9786 4.66195 8.99385 4.73895 8.99385C4.81596 8.99385 4.89221 8.9786 4.96329 8.94899C5.03437 8.91937 5.09889 8.87597 5.15312 8.8213L9.91312 4.0613C9.97233 4.00667 10.0196 3.94038 10.0519 3.86659C10.0842 3.79279 10.1009 3.71311 10.1009 3.63255C10.1009 3.55199 10.0842 3.4723 10.0519 3.39851C10.0196 3.32472 9.97233 3.25842 9.91312 3.2038V3.2038Z" fill="#477DB3"/>
</svg>
