<svg width="15" height="16" viewBox="0 0 15 16" fill="none" xmlns="http://www.w3.org/2000/svg">
<path opacity="0.4" d="M13.3242 5.20851L7.70505 11.2355L6 9.41274L11.6276 3.38777C11.6828 3.32832 11.7485 3.28106 11.821 3.24871C11.8934 3.21637 11.971 3.19954 12.0495 3.19922C12.128 3.1989 12.2057 3.21507 12.2784 3.24682C12.351 3.27858 12.4171 3.32528 12.4727 3.38426L12.476 3.38777L13.3242 4.29802C13.4368 4.4191 13.5 4.58273 13.5 4.75326C13.5 4.9238 13.4368 5.08743 13.3242 5.20851Z" fill="#477DB3"/>
<path d="M7.70325 11.2389L6.42427 12.6106C6.31262 12.7306 6.16086 12.7985 6.00237 12.7991C5.84387 12.7997 5.69162 12.7332 5.57911 12.6141L5.57583 12.6106L1.67583 8.42662C1.5632 8.30566 1.5 8.14206 1.5 7.97153C1.5 7.80101 1.5632 7.63741 1.67583 7.5164L2.52427 6.60615C2.63573 6.48645 2.78715 6.41878 2.94532 6.41798C3.10348 6.41718 3.2555 6.48332 3.36802 6.6019L3.37177 6.60615L7.70325 11.2389Z" fill="#477DB3"/>
</svg>
