<svg width="20" height="20" viewBox="0 0 20 20" fill="none" xmlns="http://www.w3.org/2000/svg">
<g filter="url(#filter0_d_12440_4858)">
<g clip-path="url(#clip0_12440_4858)">
<rect x="4" y="4" width="12" height="12" rx="4" fill="#EDF2F7"/>
<path d="M13.9131 7.2038C13.8589 7.14912 13.7944 7.10573 13.7233 7.07611C13.6522 7.0465 13.576 7.03125 13.499 7.03125C13.4219 7.03125 13.3457 7.0465 13.2746 7.07611C13.2035 7.10573 13.139 7.14912 13.0848 7.2038L8.73895 11.5555L6.91312 9.7238C6.85682 9.66941 6.79035 9.62664 6.71752 9.59794C6.64469 9.56924 6.56691 9.55516 6.48864 9.55652C6.41037 9.55787 6.33313 9.57463 6.26133 9.60583C6.18954 9.63704 6.12459 9.68208 6.0702 9.73838C6.01581 9.79469 5.97305 9.86115 5.94435 9.93398C5.91564 10.0068 5.90157 10.0846 5.90292 10.1629C5.90428 10.2411 5.92103 10.3184 5.95224 10.3902C5.98344 10.462 6.02848 10.5269 6.08479 10.5813L8.32479 12.8213C8.37902 12.876 8.44353 12.9194 8.51462 12.949C8.5857 12.9786 8.66195 12.9938 8.73895 12.9938C8.81596 12.9938 8.89221 12.9786 8.96329 12.949C9.03437 12.9194 9.09889 12.876 9.15312 12.8213L13.9131 8.0613C13.9723 8.00667 14.0196 7.94038 14.0519 7.86659C14.0842 7.79279 14.1009 7.71311 14.1009 7.63255C14.1009 7.55199 14.0842 7.4723 14.0519 7.39851C14.0196 7.32472 13.9723 7.25842 13.9131 7.2038Z" fill="#477DB3"/>
</g>
<rect x="4.5" y="4.5" width="11" height="11" rx="3.5" stroke="#477DB3"/>
</g>
<defs>
<filter id="filter0_d_12440_4858" x="0" y="0" width="20" height="20" filterUnits="userSpaceOnUse" color-interpolation-filters="sRGB">
<feFlood flood-opacity="0" result="BackgroundImageFix"/>
<feColorMatrix in="SourceAlpha" type="matrix" values="0 0 0 0 0 0 0 0 0 0 0 0 0 0 0 0 0 0 127 0" result="hardAlpha"/>
<feMorphology radius="4" operator="dilate" in="SourceAlpha" result="effect1_dropShadow_12440_4858"/>
<feOffset/>
<feComposite in2="hardAlpha" operator="out"/>
<feColorMatrix type="matrix" values="0 0 0 0 0.929412 0 0 0 0 0.94902 0 0 0 0 0.968627 0 0 0 1 0"/>
<feBlend mode="normal" in2="BackgroundImageFix" result="effect1_dropShadow_12440_4858"/>
<feBlend mode="normal" in="SourceGraphic" in2="effect1_dropShadow_12440_4858" result="shape"/>
</filter>
<clipPath id="clip0_12440_4858">
<rect x="4" y="4" width="12" height="12" rx="4" fill="white"/>
</clipPath>
</defs>
</svg>
