<svg width="80" height="26" viewBox="0 0 80 26" fill="none" xmlns="http://www.w3.org/2000/svg">
<path d="M0.501056 12.7348C0.474484 14.79 0.949758 16.8117 1.87439 18.6283C2.3448 19.5525 3.45736 19.9812 4.32874 19.419C6.26154 18.1718 7.5838 15.6464 7.5838 12.7348C7.5838 9.82453 6.26631 7.30541 4.34064 6.057C3.47067 5.493 2.35724 5.91852 1.88463 6.84132C0.955005 8.65645 0.476081 10.6785 0.501056 12.7348Z" fill="#477DB3"/>
<g style="mix-blend-mode:overlay" opacity="0.1">
<path d="M3.8157 8.01384C2.95671 7.03958 1.49279 7.55485 1.10644 8.79493C0.71029 10.0664 0.506836 11.3947 0.506836 12.7352C0.506836 14.0765 0.710516 15.4055 1.1071 16.6776C1.49339 17.9168 2.95621 18.4328 3.81531 17.4599C4.84464 16.2941 5.49222 14.612 5.49222 12.7352C5.49222 10.8602 4.8434 9.17946 3.8157 8.01384Z" fill="white"/>
</g>
<g style="mix-blend-mode:multiply" opacity="0.2">
<path d="M7.42389 11.0053C7.2074 9.85477 6.45079 10.5738 6.56577 11.7388C6.59799 12.0653 6.61459 12.3979 6.61459 12.7354C6.61459 13.0607 6.59922 13.3813 6.56935 13.6964C6.45877 14.8624 7.21841 15.5814 7.43052 14.4294C7.53075 13.8851 7.58372 13.318 7.58372 12.7354C7.58372 12.14 7.52841 11.5607 7.42389 11.0053Z" fill="#477DB3"/>
</g>
<path d="M21.7633 15.1919L21.5204 15.1361C20.8447 14.9905 20.1409 15.051 19.5 15.31C18.8592 15.5689 18.3108 16.0142 17.9259 16.5884C16.9149 18.0909 15.39 18.7752 13.6137 18.7752C12.9049 18.7811 12.2003 18.6659 11.5302 18.4344C10.7411 18.1469 9.87341 18.1622 9.09494 18.4774C8.31646 18.7926 7.68254 19.3853 7.31578 20.1409C7.1046 20.5755 6.98926 21.0505 6.97755 21.5335C6.96584 22.0166 7.05805 22.4966 7.24792 22.9409C7.43779 23.3853 7.7209 23.7837 8.07809 24.1091C8.43528 24.4346 8.85822 24.6795 9.31827 24.8273C10.7087 25.261 12.1573 25.4795 13.6137 25.4753C17.803 25.4753 21.526 23.6767 23.8077 20.6492C24.1563 20.1848 24.3823 19.6401 24.4649 19.0654C24.5475 18.4906 24.4841 17.9043 24.2804 17.3606C24.0767 16.8168 23.7393 16.3331 23.2994 15.9541C22.8595 15.5751 22.3312 15.313 21.7633 15.1919Z" fill="#477DB3"/>
<path d="M7.31582 5.34557C7.68475 6.10255 8.32135 6.69578 9.10243 7.01049C9.88352 7.32519 10.7536 7.33899 11.5442 7.04923C12.2093 6.81693 12.9093 6.70072 13.6138 6.7057C15.3314 6.7057 16.8144 7.3704 17.7724 8.7836C18.1656 9.38396 18.7329 9.84986 19.3982 10.1189C20.0636 10.3879 20.7953 10.4473 21.4953 10.289L21.7746 10.2191C22.3358 10.0852 22.8547 9.813 23.2838 9.42723C23.7129 9.04146 24.0386 8.55443 24.2313 8.01053C24.424 7.46663 24.4775 6.88315 24.3869 6.31328C24.2964 5.74341 24.0646 5.20527 23.7128 4.7479C21.3947 1.76231 17.6858 0 13.6054 0C12.1496 0.00258122 10.7027 0.228643 9.31552 0.670289C8.85635 0.818876 8.43437 1.06417 8.07802 1.38963C7.72166 1.71509 7.43921 2.11316 7.24971 2.55701C7.06021 3.00086 6.96806 3.48017 6.97946 3.96265C6.99086 4.44512 7.10556 4.91954 7.31582 5.35395V5.34557Z" fill="#477DB3"/>
<g style="mix-blend-mode:multiply" opacity="0.5">
<g style="mix-blend-mode:multiply" opacity="0.5">
<path d="M21.7101 15.1953L21.5202 15.1535C20.8459 15.0064 20.1431 15.0649 19.5023 15.3213C18.8616 15.5777 18.3125 16.0202 17.9257 16.5918C16.9147 18.0944 15.3898 18.7786 13.6135 18.7786C12.9047 18.7845 12.2001 18.6693 11.53 18.4379C10.9334 18.2233 10.2888 18.1788 9.66833 18.3095C9.04786 18.4402 8.47598 18.7409 8.0166 19.178C9.08787 20.1061 10.3746 20.751 11.7592 21.0539C13.1439 21.3568 14.5824 21.308 15.9433 20.912C17.3042 20.5159 18.5443 19.7852 19.5502 18.7866C20.556 17.788 21.2957 16.5534 21.7017 15.1953H21.7101Z" fill="#477DB3"/>
</g>
<g style="mix-blend-mode:multiply" opacity="0.5">
<path d="M8.03516 6.33008C8.49672 6.7617 9.06856 7.0574 9.68757 7.18455C10.3066 7.3117 10.9487 7.26536 11.543 7.05064C12.2081 6.81834 12.9081 6.70214 13.6125 6.70711C15.3302 6.70711 16.8132 7.37182 17.7711 8.78502C18.1644 9.38538 18.7317 9.85128 19.397 10.1203C20.0624 10.3893 20.794 10.4487 21.494 10.2904L21.684 10.2457C21.2668 8.90003 20.5211 7.67943 19.5141 6.69405C18.5072 5.70867 17.2708 4.98953 15.9164 4.60154C14.562 4.21354 13.1324 4.16891 11.7564 4.47166C10.3805 4.77441 9.10159 5.41502 8.03516 6.33567V6.33008Z" fill="#477DB3"/>
</g>
</g>
<g style="mix-blend-mode:overlay" opacity="0.3">
<g style="mix-blend-mode:overlay" opacity="0.3">
<path d="M13.5828 24.5307C11.2939 24.5335 9.05417 23.8665 7.13965 22.612C7.29783 23.1285 7.57932 23.5988 7.95982 23.9822C8.34032 24.3656 8.80841 24.6507 9.32368 24.8128C10.7141 25.2465 12.1627 25.465 13.6191 25.4608C17.8085 25.4608 21.5314 23.6621 23.8131 20.6347C24.1402 20.202 24.3586 19.6972 24.4499 19.1626C24.5413 18.6279 24.503 18.0792 24.3382 17.5625C23.4096 19.6384 21.8998 21.401 19.9912 22.6375C18.0827 23.8741 15.8569 24.5316 13.5828 24.5307Z" fill="white"/>
</g>
<g style="mix-blend-mode:overlay" opacity="0.3">
<path d="M13.5831 0.971917C15.8394 0.97197 18.0483 1.62 19.947 2.83895C21.8457 4.0579 23.3545 5.79649 24.2938 7.84799C24.4585 7.32462 24.4937 6.7691 24.3964 6.22913C24.2991 5.68916 24.0722 5.18088 23.7352 4.7479C21.4171 1.76231 17.7082 0 13.6278 0C12.1645 0.000288805 10.71 0.226378 9.31559 0.670289C8.79527 0.834379 8.32334 1.12404 7.94146 1.51371C7.55959 1.90338 7.27952 2.38106 7.12598 2.90459C9.0423 1.64119 11.2878 0.96909 13.5831 0.971917Z" fill="white"/>
</g>
</g>
<path d="M36.41 8.176C36.6527 8.29733 36.7927 8.48867 36.83 8.75C36.8767 9.01133 36.8113 9.24933 36.634 9.464C36.5127 9.632 36.354 9.72533 36.158 9.744C35.9713 9.76267 35.78 9.72533 35.584 9.632C35.36 9.52933 35.122 9.45 34.87 9.394C34.6273 9.338 34.3707 9.31 34.1 9.31C33.596 9.31 33.1433 9.38933 32.742 9.548C32.35 9.70667 32.014 9.93533 31.734 10.234C31.454 10.5233 31.2393 10.8687 31.09 11.27C30.95 11.6713 30.88 12.1147 30.88 12.6C30.88 13.1693 30.9593 13.664 31.118 14.084C31.286 14.504 31.5147 14.854 31.804 15.134C32.0933 15.414 32.434 15.624 32.826 15.764C33.218 15.8947 33.6427 15.96 34.1 15.96C34.352 15.96 34.604 15.9367 34.856 15.89C35.108 15.8433 35.3507 15.7593 35.584 15.638C35.78 15.5447 35.9713 15.512 36.158 15.54C36.354 15.568 36.5173 15.666 36.648 15.834C36.8347 16.0673 36.9 16.31 36.844 16.562C36.7973 16.8047 36.6573 16.982 36.424 17.094C36.1813 17.2153 35.9293 17.318 35.668 17.402C35.416 17.4767 35.1593 17.5327 34.898 17.57C34.6367 17.6167 34.3707 17.64 34.1 17.64C33.428 17.64 32.7887 17.5327 32.182 17.318C31.5847 17.1033 31.048 16.786 30.572 16.366C30.1053 15.946 29.7367 15.4233 29.466 14.798C29.1953 14.1633 29.06 13.4307 29.06 12.6C29.06 11.8813 29.1813 11.2187 29.424 10.612C29.676 10.0053 30.026 9.48267 30.474 9.044C30.9313 8.596 31.468 8.25067 32.084 8.008C32.7 7.756 33.372 7.63 34.1 7.63C34.5107 7.63 34.912 7.67667 35.304 7.77C35.696 7.86333 36.0647 7.99867 36.41 8.176ZM45.4533 13.762C45.4533 14.5273 45.2807 15.204 44.9353 15.792C44.5993 16.3707 44.142 16.8233 43.5633 17.15C42.994 17.4767 42.3547 17.64 41.6453 17.64C40.936 17.64 40.292 17.4767 39.7133 17.15C39.144 16.8233 38.6867 16.3707 38.3413 15.792C38.0053 15.204 37.8373 14.5273 37.8373 13.762C37.8373 12.9967 38.0053 12.3247 38.3413 11.746C38.6867 11.158 39.144 10.7007 39.7133 10.374C40.292 10.038 40.936 9.87 41.6453 9.87C42.3547 9.87 42.994 10.038 43.5633 10.374C44.142 10.7007 44.5993 11.158 44.9353 11.746C45.2807 12.3247 45.4533 12.9967 45.4533 13.762ZM43.7733 13.762C43.7733 13.286 43.6753 12.8753 43.4793 12.53C43.2927 12.1753 43.036 11.9 42.7093 11.704C42.392 11.508 42.0373 11.41 41.6453 11.41C41.2533 11.41 40.894 11.508 40.5673 11.704C40.25 11.9 39.9933 12.1753 39.7973 12.53C39.6107 12.8753 39.5173 13.286 39.5173 13.762C39.5173 14.2287 39.6107 14.6393 39.7973 14.994C39.9933 15.3393 40.25 15.61 40.5673 15.806C40.894 16.002 41.2533 16.1 41.6453 16.1C42.0373 16.1 42.392 16.002 42.7093 15.806C43.036 15.61 43.2927 15.3393 43.4793 14.994C43.6753 14.6393 43.7733 14.2287 43.7733 13.762ZM50.9277 9.87C51.6183 9.87 52.141 10.0147 52.4957 10.304C52.8597 10.5933 53.107 10.9807 53.2377 11.466C53.3777 11.942 53.4477 12.474 53.4477 13.062V16.646C53.4477 16.8887 53.3683 17.094 53.2097 17.262C53.051 17.4207 52.8503 17.5 52.6077 17.5C52.365 17.5 52.1643 17.4207 52.0057 17.262C51.847 17.094 51.7677 16.8887 51.7677 16.646V13.062C51.7677 12.754 51.7257 12.4787 51.6417 12.236C51.567 11.984 51.427 11.7833 51.2217 11.634C51.0163 11.4847 50.7223 11.41 50.3397 11.41C49.9663 11.41 49.649 11.4847 49.3877 11.634C49.1357 11.7833 48.9397 11.984 48.7997 12.236C48.669 12.4787 48.6037 12.754 48.6037 13.062V16.646C48.6037 16.8887 48.5243 17.094 48.3657 17.262C48.207 17.4207 48.0063 17.5 47.7637 17.5C47.521 17.5 47.3203 17.4207 47.1617 17.262C47.003 17.094 46.9237 16.8887 46.9237 16.646V10.864C46.9237 10.6213 47.003 10.4207 47.1617 10.262C47.3203 10.094 47.521 10.01 47.7637 10.01C48.0063 10.01 48.207 10.094 48.3657 10.262C48.5243 10.4207 48.6037 10.6213 48.6037 10.864V11.466L48.3937 11.424C48.4777 11.2653 48.599 11.0973 48.7577 10.92C48.9163 10.7333 49.103 10.5607 49.3177 10.402C49.5323 10.2433 49.775 10.1173 50.0457 10.024C50.3163 9.92133 50.6103 9.87 50.9277 9.87ZM55.5312 10.01C55.7085 10.01 55.8718 10.0567 56.0212 10.15C56.1705 10.234 56.2825 10.3647 56.3572 10.542L58.4152 15.246L58.1072 15.386L60.2072 10.556C60.3658 10.1827 60.6132 10.0053 60.9492 10.024C61.1825 10.024 61.3692 10.0987 61.5092 10.248C61.6585 10.388 61.7332 10.5653 61.7332 10.78C61.7332 10.8453 61.7192 10.9153 61.6912 10.99C61.6725 11.0647 61.6492 11.1347 61.6212 11.2L59.0032 16.968C58.8538 17.304 58.6158 17.4813 58.2892 17.5C58.1118 17.528 57.9392 17.4953 57.7712 17.402C57.6125 17.3087 57.4912 17.164 57.4072 16.968L54.8032 11.2C54.7845 11.1533 54.7612 11.0927 54.7332 11.018C54.7145 10.9433 54.7052 10.8547 54.7052 10.752C54.7052 10.584 54.7798 10.4207 54.9292 10.262C55.0785 10.094 55.2792 10.01 55.5312 10.01ZM70.2541 13.762C70.2541 14.5273 70.0815 15.204 69.7361 15.792C69.4001 16.3707 68.9428 16.8233 68.3641 17.15C67.7948 17.4767 67.1555 17.64 66.4461 17.64C65.7368 17.64 65.0928 17.4767 64.5141 17.15C63.9448 16.8233 63.4875 16.3707 63.1421 15.792C62.8061 15.204 62.6381 14.5273 62.6381 13.762C62.6381 12.9967 62.8061 12.3247 63.1421 11.746C63.4875 11.158 63.9448 10.7007 64.5141 10.374C65.0928 10.038 65.7368 9.87 66.4461 9.87C67.1555 9.87 67.7948 10.038 68.3641 10.374C68.9428 10.7007 69.4001 11.158 69.7361 11.746C70.0815 12.3247 70.2541 12.9967 70.2541 13.762ZM68.5741 13.762C68.5741 13.286 68.4761 12.8753 68.2801 12.53C68.0935 12.1753 67.8368 11.9 67.5101 11.704C67.1928 11.508 66.8381 11.41 66.4461 11.41C66.0541 11.41 65.6948 11.508 65.3681 11.704C65.0508 11.9 64.7941 12.1753 64.5981 12.53C64.4115 12.8753 64.3181 13.286 64.3181 13.762C64.3181 14.2287 64.4115 14.6393 64.5981 14.994C64.7941 15.3393 65.0508 15.61 65.3681 15.806C65.6948 16.002 66.0541 16.1 66.4461 16.1C66.8381 16.1 67.1928 16.002 67.5101 15.806C67.8368 15.61 68.0935 15.3393 68.2801 14.994C68.4761 14.6393 68.5741 14.2287 68.5741 13.762ZM77.2825 10.01C77.5251 10.01 77.7258 10.094 77.8845 10.262C78.0431 10.4207 78.1225 10.6213 78.1225 10.864V16.814C78.1225 17.6727 77.9591 18.354 77.6325 18.858C77.3151 19.3713 76.8858 19.74 76.3445 19.964C75.8031 20.188 75.1965 20.3 74.5245 20.3C74.2258 20.3 73.9085 20.2767 73.5725 20.23C73.2365 20.1833 72.9611 20.1133 72.7465 20.02C72.4665 19.8987 72.2705 19.7447 72.1585 19.558C72.0558 19.3807 72.0371 19.1893 72.1025 18.984C72.1865 18.7133 72.3218 18.5267 72.5085 18.424C72.6951 18.3307 72.8911 18.3213 73.0965 18.396C73.2458 18.4427 73.4418 18.5127 73.6845 18.606C73.9271 18.7087 74.2071 18.76 74.5245 18.76C74.9538 18.76 75.3085 18.6993 75.5885 18.578C75.8778 18.466 76.0925 18.27 76.2325 17.99C76.3818 17.7193 76.4565 17.346 76.4565 16.87V15.932L76.7505 16.268C76.5918 16.576 76.3911 16.8327 76.1485 17.038C75.9151 17.234 75.6351 17.3833 75.3085 17.486C74.9818 17.5887 74.6085 17.64 74.1885 17.64C73.6938 17.64 73.2598 17.528 72.8865 17.304C72.5225 17.0707 72.2378 16.7533 72.0325 16.352C71.8271 15.9413 71.7245 15.4747 71.7245 14.952V10.864C71.7245 10.6213 71.8038 10.4207 71.9625 10.262C72.1211 10.094 72.3218 10.01 72.5645 10.01C72.8071 10.01 73.0078 10.094 73.1665 10.262C73.3251 10.4207 73.4045 10.6213 73.4045 10.864V14.448C73.4045 15.0547 73.5351 15.484 73.7965 15.736C74.0671 15.9787 74.4405 16.1 74.9165 16.1C75.2431 16.1 75.5185 16.0393 75.7425 15.918C75.9665 15.7873 76.1391 15.6007 76.2605 15.358C76.3818 15.106 76.4425 14.8027 76.4425 14.448V10.864C76.4425 10.6213 76.5218 10.4207 76.6805 10.262C76.8391 10.094 77.0398 10.01 77.2825 10.01Z" fill="#477DB3"/>
</svg>
