<svg width="20" height="20" viewBox="0 0 20 20" fill="none" xmlns="http://www.w3.org/2000/svg">
<path d="M13.3337 10.7474V14.2474C13.3337 17.1641 12.167 18.3307 9.25033 18.3307H5.75033C2.83366 18.3307 1.66699 17.1641 1.66699 14.2474V10.7474C1.66699 7.83073 2.83366 6.66406 5.75033 6.66406H9.25033C12.167 6.66406 13.3337 7.83073 13.3337 10.7474Z" stroke="#98A2B3" stroke-width="1.21875" stroke-linecap="round" stroke-linejoin="round"/>
<path d="M18.3337 5.7474V9.2474C18.3337 12.1641 17.167 13.3307 14.2503 13.3307H13.3337V10.7474C13.3337 7.83073 12.167 6.66406 9.25033 6.66406H6.66699V5.7474C6.66699 2.83073 7.83366 1.66406 10.7503 1.66406H14.2503C17.167 1.66406 18.3337 2.83073 18.3337 5.7474Z" stroke="#98A2B3" stroke-width="1.21875" stroke-linecap="round" stroke-linejoin="round"/>
</svg>
