<svg width="14" height="14" viewBox="0 0 14 14" fill="none" xmlns="http://www.w3.org/2000/svg">
<path d="M9.03125 7.45703V9.58984C9.03125 11.3672 8.32031 12.0781 6.54297 12.0781H4.41016C2.63281 12.0781 1.92188 11.3672 1.92188 9.58984V7.45703C1.92188 5.67969 2.63281 4.96875 4.41016 4.96875H6.54297C8.32031 4.96875 9.03125 5.67969 9.03125 7.45703Z" stroke="#98A2B3" stroke-width="1.21875" stroke-linecap="round" stroke-linejoin="round"/>
<path d="M12.0781 4.41016V6.54297C12.0781 8.32031 11.3672 9.03125 9.58984 9.03125H9.03125V7.45703C9.03125 5.67969 8.32031 4.96875 6.54297 4.96875H4.96875V4.41016C4.96875 2.63281 5.67969 1.92188 7.45703 1.92188H9.58984C11.3672 1.92188 12.0781 2.63281 12.0781 4.41016Z" stroke="#98A2B3" stroke-width="1.21875" stroke-linecap="round" stroke-linejoin="round"/>
</svg>
