<svg width="13" height="13" viewBox="0 0 13 13" fill="none" xmlns="http://www.w3.org/2000/svg">
<path d="M9.5 5.95786C9.49653 5.92724 9.48982 5.89707 9.48 5.86786V5.83786C9.46397 5.80359 9.4426 5.77209 9.41667 5.74453L7.41667 3.74453C7.38911 3.7186 7.35761 3.69722 7.32333 3.6812C7.31338 3.67978 7.30328 3.67978 7.29333 3.6812C7.25947 3.66178 7.22207 3.64931 7.18333 3.64453H5.83333C5.56812 3.64453 5.31376 3.74989 5.12623 3.93742C4.93869 4.12496 4.83333 4.37931 4.83333 4.64453V4.97786H4.5C4.23478 4.97786 3.98043 5.08322 3.79289 5.27076C3.60536 5.45829 3.5 5.71265 3.5 5.97786V9.3112C3.5 9.57641 3.60536 9.83077 3.79289 10.0183C3.98043 10.2058 4.23478 10.3112 4.5 10.3112H7.16667C7.43188 10.3112 7.68624 10.2058 7.87377 10.0183C8.06131 9.83077 8.16667 9.57641 8.16667 9.3112V8.97786H8.5C8.76522 8.97786 9.01957 8.87251 9.20711 8.68497C9.39464 8.49743 9.5 8.24308 9.5 7.97786V5.97786C9.5 5.97786 9.5 5.97786 9.5 5.95786ZM7.5 4.7812L8.36333 5.64453H7.83333C7.74493 5.64453 7.66014 5.60941 7.59763 5.5469C7.53512 5.48439 7.5 5.3996 7.5 5.3112V4.7812ZM7.5 9.3112C7.5 9.3996 7.46488 9.48439 7.40237 9.5469C7.33986 9.60941 7.25507 9.64453 7.16667 9.64453H4.5C4.41159 9.64453 4.32681 9.60941 4.2643 9.5469C4.20179 9.48439 4.16667 9.3996 4.16667 9.3112V5.97786C4.16667 5.88946 4.20179 5.80467 4.2643 5.74216C4.32681 5.67965 4.41159 5.64453 4.5 5.64453H4.83333V7.97786C4.83333 8.24308 4.93869 8.49743 5.12623 8.68497C5.31376 8.87251 5.56812 8.97786 5.83333 8.97786H7.5V9.3112ZM8.83333 7.97786C8.83333 8.06627 8.79821 8.15105 8.7357 8.21357C8.67319 8.27608 8.58841 8.3112 8.5 8.3112H5.83333C5.74493 8.3112 5.66014 8.27608 5.59763 8.21357C5.53512 8.15105 5.5 8.06627 5.5 7.97786V4.64453C5.5 4.55613 5.53512 4.47134 5.59763 4.40883C5.66014 4.34632 5.74493 4.3112 5.83333 4.3112H6.83333V5.3112C6.83333 5.57641 6.93869 5.83077 7.12623 6.0183C7.31376 6.20584 7.56812 6.3112 7.83333 6.3112H8.83333V7.97786Z" fill="#737A91"/>
</svg>
