<svg width="8" height="8" viewBox="0 0 8 8" fill="none" xmlns="http://www.w3.org/2000/svg">
<g clip-path="url(#clip0_12093_86147)">
<path d="M1.6665 5.99933H3.07984C3.12371 5.99958 3.16719 5.99117 3.20781 5.97459C3.24842 5.958 3.28536 5.93356 3.3165 5.90266L5.62317 3.59266L6.56984 2.666C6.60108 2.63501 6.62588 2.59814 6.6428 2.55752C6.65972 2.5169 6.66844 2.47333 6.66844 2.42933C6.66844 2.38532 6.65972 2.34176 6.6428 2.30114C6.62588 2.26052 6.60108 2.22365 6.56984 2.19266L5.1565 0.762662C5.12552 0.731419 5.08865 0.706621 5.04803 0.689698C5.00741 0.672775 4.96384 0.664062 4.91984 0.664062C4.87583 0.664063 4.83226 0.672775 4.79165 0.689698C4.75103 0.706621 4.71416 0.731419 4.68317 0.762662L3.74317 1.706L1.42984 4.016C1.39894 4.04714 1.3745 4.08408 1.35791 4.12469C1.34133 4.16531 1.33292 4.20879 1.33317 4.25266V5.666C1.33317 5.7544 1.36829 5.83919 1.4308 5.9017C1.49331 5.96421 1.5781 5.99933 1.6665 5.99933ZM4.91984 1.46933L5.86317 2.41266L5.38984 2.886L4.4465 1.94266L4.91984 1.46933ZM1.99984 4.38933L3.9765 2.41266L4.91984 3.356L2.94317 5.33266H1.99984V4.38933ZM6.99984 6.666H0.999837C0.911432 6.666 0.826647 6.70111 0.764135 6.76363C0.701623 6.82614 0.666504 6.91092 0.666504 6.99933C0.666504 7.08773 0.701623 7.17252 0.764135 7.23503C0.826647 7.29754 0.911432 7.33266 0.999837 7.33266H6.99984C7.08824 7.33266 7.17303 7.29754 7.23554 7.23503C7.29805 7.17252 7.33317 7.08773 7.33317 6.99933C7.33317 6.91092 7.29805 6.82614 7.23554 6.76363C7.17303 6.70111 7.08824 6.666 6.99984 6.666Z" fill="#737A91"/>
</g>
<defs>
<clipPath id="clip0_12093_86147">
<rect width="8" height="8" fill="white"/>
</clipPath>
</defs>
</svg>
