<svg width="8" height="12" viewBox="0 0 8 12" fill="none" xmlns="http://www.w3.org/2000/svg">
<path d="M5.04417 4.95714C5.09839 5.01181 5.16291 5.05521 5.234 5.08482C5.30508 5.11444 5.38133 5.12968 5.45833 5.12968C5.53534 5.12968 5.61159 5.11444 5.68267 5.08482C5.75375 5.05521 5.81827 5.01181 5.8725 4.95714C5.92717 4.90291 5.97057 4.83839 6.00019 4.7673C6.0298 4.69622 6.04505 4.61998 6.04505 4.54297C6.04505 4.46596 6.0298 4.38972 6.00019 4.31863C5.97057 4.24755 5.92717 4.18303 5.8725 4.1288L4.41417 2.67047C4.35869 2.61736 4.29327 2.57573 4.22167 2.54797C4.07965 2.48962 3.92035 2.48962 3.77833 2.54797C3.70673 2.57573 3.64131 2.61736 3.58583 2.67047L2.1275 4.1288C2.01766 4.23865 1.95595 4.38763 1.95595 4.54297C1.95595 4.69831 2.01766 4.84729 2.1275 4.95714C2.23734 5.06698 2.38632 5.12869 2.54167 5.12869C2.69701 5.12869 2.84599 5.06698 2.95583 4.95714L3.41667 4.49047V7.51214L2.95583 7.04547C2.84599 6.93562 2.69701 6.87392 2.54167 6.87392C2.38632 6.87392 2.23734 6.93562 2.1275 7.04547C2.01766 7.15531 1.95595 7.30429 1.95595 7.45964C1.95595 7.61498 2.01766 7.76396 2.1275 7.8738L3.58583 9.33213C3.64131 9.38524 3.70673 9.42687 3.77833 9.45464C3.84816 9.4855 3.92366 9.50144 4 9.50144C4.07634 9.50144 4.15184 9.4855 4.22167 9.45464C4.29327 9.42687 4.35869 9.38524 4.41417 9.33213L5.8725 7.8738C5.98234 7.76396 6.04405 7.61498 6.04405 7.45964C6.04405 7.30429 5.98234 7.15531 5.8725 7.04547C5.76266 6.93562 5.61368 6.87392 5.45833 6.87392C5.30299 6.87392 5.15401 6.93562 5.04417 7.04547L4.58333 7.51214V4.49047L5.04417 4.95714ZM1.08333 1.33464H6.91667C7.07138 1.33464 7.21975 1.27318 7.32915 1.16378C7.43854 1.05438 7.5 0.906012 7.5 0.751302C7.5 0.596592 7.43854 0.448219 7.32915 0.338823C7.21975 0.229427 7.07138 0.167969 6.91667 0.167969H1.08333C0.928624 0.167969 0.780251 0.229427 0.670854 0.338823C0.561458 0.448219 0.5 0.596592 0.5 0.751302C0.5 0.906012 0.561458 1.05438 0.670854 1.16378C0.780251 1.27318 0.928624 1.33464 1.08333 1.33464ZM6.91667 10.668H1.08333C0.928624 10.668 0.780251 10.7294 0.670854 10.8388C0.561458 10.9482 0.5 11.0966 0.5 11.2513C0.5 11.406 0.561458 11.5544 0.670854 11.6638C0.780251 11.7732 0.928624 11.8346 1.08333 11.8346H6.91667C7.07138 11.8346 7.21975 11.7732 7.32915 11.6638C7.43854 11.5544 7.5 11.406 7.5 11.2513C7.5 11.0966 7.43854 10.9482 7.32915 10.8388C7.21975 10.7294 7.07138 10.668 6.91667 10.668Z" fill="#477DB3"/>
</svg>
