<svg width="17" height="17" viewBox="0 0 17 17" fill="none" xmlns="http://www.w3.org/2000/svg">
<path d="M13.8338 6.69698C13.8268 6.63574 13.8134 6.5754 13.7938 6.51698V6.45698C13.7617 6.38843 13.719 6.32542 13.6671 6.27031L9.66706 2.27031C9.61195 2.21846 9.54894 2.1757 9.48039 2.14365H9.42039L9.20705 2.07031H5.16701C4.63657 2.07031 4.12786 2.28103 3.75278 2.6561C3.37771 3.03117 3.16699 3.53988 3.16699 4.07031V13.4036C3.16699 13.9341 3.37771 14.4428 3.75278 14.8179C4.12786 15.1929 4.63657 15.4036 5.16701 15.4036H11.8337C12.3642 15.4036 12.8729 15.1929 13.248 14.8179C13.6231 14.4428 13.8338 13.9341 13.8338 13.4036V6.73698C13.8338 6.73698 13.8338 6.73698 13.8338 6.69698ZM9.83373 4.34365L11.5604 6.07031H9.83373V4.34365ZM12.5004 13.4036C12.5004 13.5805 12.4302 13.75 12.3052 13.8751C12.1801 14.0001 12.0106 14.0703 11.8337 14.0703H5.16701C4.9902 14.0703 4.82063 14.0001 4.6956 13.8751C4.57058 13.75 4.50034 13.5805 4.50034 13.4036V4.07031C4.50034 3.8935 4.57058 3.72393 4.6956 3.59891C4.82063 3.47388 4.9902 3.40365 5.16701 3.40365H8.50038V6.73698C8.50038 6.91379 8.57062 7.08336 8.69564 7.20838C8.82067 7.33341 8.99024 7.40365 9.16705 7.40365H12.5004V13.4036Z" fill="#477DB3"/>
</svg>
