<svg width="21" height="21" viewBox="0 0 21 21" fill="none" xmlns="http://www.w3.org/2000/svg">
<rect x="0.5" y="0.476562" width="20" height="20" rx="10" fill="#FBE6CA"/>
<path d="M11.4604 5.76068L12.4382 7.71623C12.5715 7.98845 12.9271 8.24957 13.2271 8.29957L14.9993 8.59401C16.1326 8.7829 16.3993 9.60512 15.5826 10.4162L14.2049 11.794C13.9715 12.0273 13.8437 12.4773 13.916 12.7996L14.3104 14.5051C14.6215 15.8551 13.9049 16.3773 12.7104 15.6718L11.0493 14.6885C10.7493 14.5107 10.2549 14.5107 9.9493 14.6885L8.28819 15.6718C7.0993 16.3773 6.37708 15.8496 6.68819 14.5051L7.08263 12.7996C7.15485 12.4773 7.02708 12.0273 6.79374 11.794L5.41597 10.4162C4.60485 9.60512 4.86597 8.7829 5.9993 8.59401L7.77152 8.29957C8.06596 8.24957 8.42152 7.98845 8.55485 7.71623L9.53263 5.76068C10.066 4.69957 10.9326 4.69957 11.4604 5.76068Z" fill="#F0AD4E" stroke="#F0AD4E" stroke-width="0.833333" stroke-linecap="round" stroke-linejoin="round"/>
</svg>
