<svg width="17" height="17" viewBox="0 0 17 17" fill="none" xmlns="http://www.w3.org/2000/svg">
<path d="M13.1665 7.8112H9.1665V3.8112C9.1665 3.63439 9.09627 3.46482 8.97124 3.33979C8.84622 3.21477 8.67665 3.14453 8.49984 3.14453C8.32303 3.14453 8.15346 3.21477 8.02843 3.33979C7.90341 3.46482 7.83317 3.63439 7.83317 3.8112V7.8112H3.83317C3.65636 7.8112 3.48679 7.88144 3.36177 8.00646C3.23674 8.13148 3.1665 8.30105 3.1665 8.47786C3.1665 8.65468 3.23674 8.82424 3.36177 8.94927C3.48679 9.07429 3.65636 9.14453 3.83317 9.14453H7.83317V13.1445C7.83317 13.3213 7.90341 13.4909 8.02843 13.6159C8.15346 13.741 8.32303 13.8112 8.49984 13.8112C8.67665 13.8112 8.84622 13.741 8.97124 13.6159C9.09627 13.4909 9.1665 13.3213 9.1665 13.1445V9.14453H13.1665C13.3433 9.14453 13.5129 9.07429 13.6379 8.94927C13.7629 8.82424 13.8332 8.65468 13.8332 8.47786C13.8332 8.30105 13.7629 8.13148 13.6379 8.00646C13.5129 7.88144 13.3433 7.8112 13.1665 7.8112Z" fill="#477DB3"/>
</svg>
