<svg width="13" height="13" viewBox="0 0 13 13" fill="none" xmlns="http://www.w3.org/2000/svg">
<path d="M10.455 8.73156H8.19C8.05739 8.73156 7.93021 8.78424 7.83645 8.87801C7.74268 8.97178 7.69 9.09895 7.69 9.23156C7.69 9.36417 7.74268 9.49135 7.83645 9.58512C7.93021 9.67888 8.05739 9.73156 8.19 9.73156H9.39C8.83847 10.3079 8.1272 10.7062 7.34758 10.8753C6.56796 11.0443 5.7556 10.9764 5.01489 10.6802C4.27417 10.384 3.63893 9.87311 3.1908 9.21315C2.74266 8.55318 2.50209 7.7743 2.5 6.97656C2.5 6.84395 2.44732 6.71678 2.35355 6.62301C2.25979 6.52924 2.13261 6.47656 2 6.47656C1.86739 6.47656 1.74021 6.52924 1.64645 6.62301C1.55268 6.71678 1.5 6.84395 1.5 6.97656C1.50264 7.95296 1.79111 8.90722 2.3298 9.72158C2.86849 10.5359 3.63383 11.1747 4.53137 11.5592C5.42891 11.9436 6.41937 12.0568 7.38051 11.8849C8.34165 11.7129 9.23142 11.2633 9.94 10.5916V11.4766C9.94 11.6092 9.99268 11.7363 10.0864 11.8301C10.1802 11.9239 10.3074 11.9766 10.44 11.9766C10.5726 11.9766 10.6998 11.9239 10.7936 11.8301C10.8873 11.7363 10.94 11.6092 10.94 11.4766V9.22656C10.9388 9.09738 10.8876 8.97369 10.7972 8.88141C10.7068 8.78913 10.5841 8.73543 10.455 8.73156ZM8 6.97656C8 6.67989 7.91203 6.38988 7.7472 6.14321C7.58238 5.89653 7.34811 5.70427 7.07403 5.59074C6.79994 5.47721 6.49834 5.44751 6.20736 5.50538C5.91639 5.56326 5.64912 5.70612 5.43934 5.9159C5.22956 6.12568 5.0867 6.39296 5.02882 6.68393C4.97094 6.9749 5.00065 7.2765 5.11418 7.55059C5.22771 7.82468 5.41997 8.05894 5.66664 8.22377C5.91332 8.38859 6.20333 8.47656 6.5 8.47656C6.89782 8.47656 7.27936 8.31853 7.56066 8.03722C7.84196 7.75592 8 7.37439 8 6.97656ZM6 6.97656C6 6.87767 6.02932 6.781 6.08427 6.69878C6.13921 6.61655 6.2173 6.55247 6.30866 6.51462C6.40002 6.47678 6.50055 6.46688 6.59755 6.48617C6.69454 6.50546 6.78363 6.55308 6.85355 6.62301C6.92348 6.69294 6.9711 6.78203 6.99039 6.87902C7.00969 6.97601 6.99978 7.07654 6.96194 7.1679C6.9241 7.25927 6.86001 7.33736 6.77779 7.3923C6.69556 7.44724 6.59889 7.47656 6.5 7.47656C6.36739 7.47656 6.24021 7.42388 6.14645 7.33012C6.05268 7.23635 6 7.10917 6 6.97656ZM6.5 1.97656C5.21819 1.98022 3.98675 2.47602 3.06 3.36156V2.47656C3.06 2.34395 3.00732 2.21678 2.91355 2.12301C2.81979 2.02924 2.69261 1.97656 2.56 1.97656C2.42739 1.97656 2.30021 2.02924 2.20645 2.12301C2.11268 2.21678 2.06 2.34395 2.06 2.47656V4.72656C2.06 4.85917 2.11268 4.98635 2.20645 5.08012C2.30021 5.17388 2.42739 5.22656 2.56 5.22656H4.81C4.94261 5.22656 5.06979 5.17388 5.16355 5.08012C5.25732 4.98635 5.31 4.85917 5.31 4.72656C5.31 4.59395 5.25732 4.46678 5.16355 4.37301C5.06979 4.27924 4.94261 4.22656 4.81 4.22656H3.61C4.16123 3.6505 4.87205 3.25231 5.6512 3.08312C6.43035 2.91392 7.24229 2.98144 7.9828 3.27699C8.72331 3.57255 9.3586 4.08267 9.80712 4.74186C10.2556 5.40106 10.4969 6.17926 10.5 6.97656C10.5 7.10917 10.5527 7.23635 10.6464 7.33012C10.7402 7.42388 10.8674 7.47656 11 7.47656C11.1326 7.47656 11.2598 7.42388 11.3536 7.33012C11.4473 7.23635 11.5 7.10917 11.5 6.97656C11.5 6.31995 11.3707 5.66977 11.1194 5.06315C10.8681 4.45652 10.4998 3.90532 10.0355 3.44103C9.57124 2.97674 9.02005 2.60844 8.41342 2.35716C7.80679 2.10589 7.15661 1.97656 6.5 1.97656Z" fill="#477DB3"/>
</svg>
