<svg width="11" height="11" viewBox="0 0 11 11" fill="none" xmlns="http://www.w3.org/2000/svg">
<path d="M8.79551 6.93776H6.90801C6.7975 6.93776 6.69152 6.98166 6.61338 7.0598C6.53524 7.13794 6.49134 7.24392 6.49134 7.35443C6.49134 7.46493 6.53524 7.57091 6.61338 7.64906C6.69152 7.72719 6.7975 7.77109 6.90801 7.77109H7.90801C7.4484 8.2514 6.85568 8.58331 6.20599 8.72417C5.55631 8.86504 4.87934 8.80843 4.26208 8.56161C3.64482 8.3148 3.11545 7.88905 2.742 7.33908C2.36855 6.78911 2.16808 6.14004 2.16634 5.47526C2.16634 5.36475 2.12244 5.25877 2.0443 5.18063C1.96616 5.10249 1.86018 5.05859 1.74967 5.05859C1.63917 5.05859 1.53319 5.10249 1.45505 5.18063C1.37691 5.25877 1.33301 5.36475 1.33301 5.47526C1.33521 6.28893 1.5756 7.08414 2.02451 7.76277C2.47342 8.4414 3.1112 8.97374 3.85915 9.2941C4.6071 9.61446 5.43248 9.70882 6.23343 9.56553C7.03438 9.42224 7.77586 9.04757 8.36634 8.48776V9.22526C8.36634 9.33577 8.41024 9.44175 8.48838 9.51989C8.56652 9.59803 8.6725 9.64193 8.78301 9.64193C8.89351 9.64193 8.9995 9.59803 9.07764 9.51989C9.15578 9.44175 9.19967 9.33577 9.19967 9.22526V7.35026C9.19865 7.24261 9.15599 7.13953 9.08065 7.06263C9.0053 6.98574 8.90312 6.94099 8.79551 6.93776ZM6.74967 5.47526C6.74967 5.22803 6.67636 4.98636 6.53901 4.7808C6.40166 4.57524 6.20644 4.41502 5.97803 4.32041C5.74962 4.2258 5.49829 4.20105 5.25581 4.24928C5.01334 4.29751 4.79061 4.41656 4.61579 4.59138C4.44098 4.76619 4.32192 4.98892 4.27369 5.2314C4.22546 5.47387 4.25022 5.72521 4.34483 5.95361C4.43943 6.18202 4.59965 6.37725 4.80521 6.5146C5.01077 6.65195 5.25245 6.72526 5.49967 6.72526C5.8312 6.72526 6.14914 6.59356 6.38356 6.35914C6.61798 6.12472 6.74967 5.80678 6.74967 5.47526ZM5.08301 5.47526C5.08301 5.39285 5.10745 5.31229 5.15323 5.24377C5.19901 5.17525 5.26409 5.12185 5.34022 5.09031C5.41636 5.05877 5.50014 5.05052 5.58096 5.0666C5.66179 5.08268 5.73603 5.12236 5.7943 5.18063C5.85257 5.2389 5.89226 5.31315 5.90834 5.39397C5.92441 5.4748 5.91616 5.55858 5.88462 5.63471C5.85309 5.71085 5.79968 5.77592 5.73116 5.82171C5.66264 5.86749 5.58208 5.89193 5.49967 5.89193C5.38917 5.89193 5.28319 5.84803 5.20505 5.76989C5.12691 5.69175 5.08301 5.58577 5.08301 5.47526ZM5.49967 1.30859C4.4315 1.31164 3.4053 1.72481 2.63301 2.46276V1.72526C2.63301 1.61475 2.58911 1.50877 2.51097 1.43063C2.43283 1.35249 2.32685 1.30859 2.21634 1.30859C2.10583 1.30859 1.99985 1.35249 1.92171 1.43063C1.84357 1.50877 1.79967 1.61475 1.79967 1.72526V3.60026C1.79967 3.71077 1.84357 3.81675 1.92171 3.89489C1.99985 3.97303 2.10583 4.01693 2.21634 4.01693H4.09134C4.20185 4.01693 4.30783 3.97303 4.38597 3.89489C4.46411 3.81675 4.50801 3.71077 4.50801 3.60026C4.50801 3.48975 4.46411 3.38377 4.38597 3.30563C4.30783 3.22749 4.20185 3.18359 4.09134 3.18359H3.09134C3.5507 2.70354 4.14305 2.37172 4.79234 2.23072C5.44164 2.08973 6.11825 2.14599 6.73534 2.39229C7.35244 2.63859 7.88184 3.06368 8.25561 3.61301C8.62937 4.16234 8.83044 4.81084 8.83301 5.47526C8.83301 5.58577 8.87691 5.69175 8.95505 5.76989C9.03319 5.84803 9.13917 5.89193 9.24967 5.89193C9.36018 5.89193 9.46616 5.84803 9.5443 5.76989C9.62244 5.69175 9.66634 5.58577 9.66634 5.47526C9.66634 4.92809 9.55857 4.38627 9.34917 3.88075C9.13978 3.37522 8.83286 2.91589 8.44595 2.52898C8.05904 2.14207 7.59971 1.83516 7.09419 1.62576C6.58867 1.41637 6.04685 1.30859 5.49967 1.30859Z" fill="#737A91"/>
</svg>
