<svg width="62" height="62" viewBox="0 0 62 62" fill="none" xmlns="http://www.w3.org/2000/svg">
<rect x="2" y="2" width="58" height="58" rx="29" fill="#FEF3F2"/>
<path d="M30.9998 29.9165C30.7125 29.9165 30.437 30.0306 30.2338 30.2338C30.0306 30.437 29.9165 30.7125 29.9165 30.9998V35.3332C29.9165 35.6205 30.0306 35.896 30.2338 36.0992C30.437 36.3024 30.7125 36.4165 30.9998 36.4165C31.2872 36.4165 31.5627 36.3024 31.7659 36.0992C31.969 35.896 32.0832 35.6205 32.0832 35.3332V30.9998C32.0832 30.7125 31.969 30.437 31.7659 30.2338C31.5627 30.0306 31.2872 29.9165 30.9998 29.9165ZM31.4115 25.6698C31.1478 25.5615 30.8519 25.5615 30.5882 25.6698C30.4552 25.7214 30.3337 25.7987 30.2307 25.8973C30.135 26.0026 30.058 26.1236 30.0032 26.2548C29.9425 26.3834 29.9128 26.5244 29.9165 26.6665C29.9157 26.8091 29.943 26.9504 29.9969 27.0824C30.0508 27.2144 30.1303 27.3344 30.2307 27.4357C30.336 27.5314 30.4569 27.6083 30.5882 27.6632C30.7523 27.7306 30.9305 27.7567 31.107 27.7391C31.2836 27.7216 31.4531 27.6609 31.6008 27.5625C31.7484 27.4641 31.8696 27.3309 31.9537 27.1747C32.0378 27.0184 32.0823 26.8439 32.0832 26.6665C32.0792 26.3797 31.967 26.1049 31.769 25.8973C31.666 25.7987 31.5445 25.7214 31.4115 25.6698ZM30.9998 20.1665C28.8572 20.1665 26.7627 20.8019 24.9812 21.9922C23.1996 23.1826 21.8111 24.8746 20.9911 26.8541C20.1712 28.8336 19.9567 31.0119 20.3747 33.1133C20.7927 35.2148 21.8244 37.1451 23.3395 38.6602C24.8546 40.1752 26.7849 41.207 28.8864 41.625C30.9878 42.043 33.166 41.8285 35.1456 41.0085C37.1251 40.1886 38.817 38.8 40.0074 37.0185C41.1978 35.237 41.8332 33.1425 41.8332 30.9998C41.8332 29.5772 41.553 28.1685 41.0085 26.8541C40.4641 25.5397 39.6661 24.3455 38.6602 23.3395C37.6542 22.3335 36.4599 21.5356 35.1456 20.9911C33.8312 20.4467 32.4225 20.1665 30.9998 20.1665ZM30.9998 39.6665C29.2857 39.6665 27.6101 39.1582 26.1849 38.2059C24.7597 37.2536 23.6488 35.9001 22.9929 34.3164C22.3369 32.7328 22.1653 30.9902 22.4997 29.3091C22.8341 27.6279 23.6595 26.0836 24.8716 24.8716C26.0836 23.6595 27.6279 22.8341 29.3091 22.4997C30.9902 22.1653 32.7328 22.3369 34.3164 22.9929C35.9001 23.6488 37.2536 24.7597 38.2059 26.1849C39.1582 27.6101 39.6665 29.2857 39.6665 30.9998C39.6665 33.2984 38.7534 35.5028 37.1281 37.1281C35.5028 38.7534 33.2984 39.6665 30.9998 39.6665Z" fill="#F97066"/>
<rect x="2" y="2" width="58" height="58" rx="29" stroke="#FFFBFA" stroke-width="4"/>
</svg>
