<svg width="22" height="22" viewBox="0 0 22 22" fill="none" xmlns="http://www.w3.org/2000/svg">
<path d="M10.9998 9.9165C10.7125 9.9165 10.437 10.0306 10.2338 10.2338C10.0306 10.437 9.91651 10.7125 9.91651 10.9998V15.3332C9.91651 15.6205 10.0306 15.896 10.2338 16.0992C10.437 16.3024 10.7125 16.4165 10.9998 16.4165C11.2872 16.4165 11.5627 16.3024 11.7659 16.0992C11.969 15.896 12.0832 15.6205 12.0832 15.3332V10.9998C12.0832 10.7125 11.969 10.437 11.7659 10.2338C11.5627 10.0306 11.2872 9.9165 10.9998 9.9165ZM11.4115 5.66984C11.1478 5.56148 10.8519 5.56148 10.5882 5.66984C10.4552 5.7214 10.3337 5.79871 10.2307 5.89734C10.135 6.00264 10.058 6.12355 10.0032 6.25484C9.94253 6.38341 9.91285 6.5244 9.91651 6.6665C9.91568 6.80908 9.94301 6.95041 9.99692 7.0824C10.0508 7.21439 10.1303 7.33444 10.2307 7.43567C10.336 7.53136 10.4569 7.60831 10.5882 7.66317C10.7523 7.7306 10.9305 7.75668 11.107 7.73913C11.2836 7.72157 11.4531 7.66092 11.6008 7.5625C11.7484 7.46407 11.8696 7.33089 11.9537 7.17466C12.0378 7.01844 12.0823 6.84394 12.0832 6.6665C12.0792 6.37967 11.967 6.10494 11.769 5.89734C11.666 5.79871 11.5445 5.7214 11.4115 5.66984ZM10.9998 0.166504C8.85721 0.166504 6.7627 0.801868 4.98116 1.99225C3.19963 3.18263 1.8111 4.87457 0.991147 6.8541C0.171198 8.83363 -0.0433383 11.0119 0.374668 13.1133C0.792675 15.2148 1.82445 17.1451 3.33952 18.6602C4.85459 20.1752 6.7849 21.207 8.88636 21.625C10.9878 22.043 13.166 21.8285 15.1456 21.0085C17.1251 20.1886 18.817 18.8 20.0074 17.0185C21.1978 15.237 21.8332 13.1425 21.8332 10.9998C21.8332 9.57718 21.553 8.16846 21.0085 6.8541C20.4641 5.53974 19.6661 4.34548 18.6602 3.33951C17.6542 2.33355 16.4599 1.53557 15.1456 0.991142C13.8312 0.446716 12.4225 0.166504 10.9998 0.166504ZM10.9998 19.6665C9.28574 19.6665 7.61013 19.1582 6.1849 18.2059C4.75967 17.2536 3.64885 15.9001 2.99289 14.3164C2.33693 12.7328 2.1653 10.9902 2.4997 9.30906C2.83411 7.62789 3.65953 6.08363 4.87158 4.87158C6.08364 3.65952 7.62789 2.8341 9.30906 2.4997C10.9902 2.16529 12.7328 2.33692 14.3164 2.99288C15.9001 3.64884 17.2536 4.75967 18.2059 6.1849C19.1582 7.61012 19.6665 9.28573 19.6665 10.9998C19.6665 13.2984 18.7534 15.5028 17.1281 17.1281C15.5028 18.7534 13.2984 19.6665 10.9998 19.6665Z" fill="#F97066"/>
</svg>
